<mxfile host="app.diagrams.net" agent="Mozilla/5.0 (Windows NT 10.0; Win64; x64) AppleWebKit/537.36 (KHTML, like Gecko) Chrome/139.0.0.0 Safari/537.36 Edg/139.0.0.0" version="28.1.2">
  <diagram name="第 1 页" id="qdPujDKUlXKJ9pawTFB2">
    <mxGraphModel dx="2421" dy="1348" grid="1" gridSize="10" guides="1" tooltips="1" connect="1" arrows="1" fold="1" page="1" pageScale="1" pageWidth="827" pageHeight="1169" math="0" shadow="0">
      <root>
        <mxCell id="0" />
        <mxCell id="1" parent="0" />
        <mxCell id="VnAICG5ymwRhYKLLCskk-14" value="" style="whiteSpace=wrap;html=1;fillColor=none;dashed=1;strokeWidth=3;strokeColor=light-dark(#ce3b3b, #ededed);" vertex="1" parent="1">
          <mxGeometry x="610" y="560" width="880" height="240" as="geometry" />
        </mxCell>
        <mxCell id="VnAICG5ymwRhYKLLCskk-2" value="" style="whiteSpace=wrap;html=1;fillColor=none;dashed=1;strokeWidth=3;strokeColor=light-dark(#ce3b3b, #ededed);" vertex="1" parent="1">
          <mxGeometry x="610" y="190" width="880" height="250" as="geometry" />
        </mxCell>
        <mxCell id="VnAICG5ymwRhYKLLCskk-78" style="edgeStyle=orthogonalEdgeStyle;rounded=0;orthogonalLoop=1;jettySize=auto;html=1;exitX=0.5;exitY=1;exitDx=0;exitDy=0;entryX=0.5;entryY=0;entryDx=0;entryDy=0;" edge="1" parent="1" source="VnAICG5ymwRhYKLLCskk-1" target="VnAICG5ymwRhYKLLCskk-15">
          <mxGeometry relative="1" as="geometry" />
        </mxCell>
        <mxCell id="VnAICG5ymwRhYKLLCskk-1" value="1" style="rounded=0;whiteSpace=wrap;html=1;fillColor=#fff2cc;strokeColor=#d6b656;" vertex="1" parent="1">
          <mxGeometry x="810" y="260" width="40" height="120" as="geometry" />
        </mxCell>
        <mxCell id="VnAICG5ymwRhYKLLCskk-80" style="edgeStyle=orthogonalEdgeStyle;rounded=0;orthogonalLoop=1;jettySize=auto;html=1;exitX=0.5;exitY=1;exitDx=0;exitDy=0;entryX=0.5;entryY=0;entryDx=0;entryDy=0;" edge="1" parent="1" source="VnAICG5ymwRhYKLLCskk-3" target="VnAICG5ymwRhYKLLCskk-16">
          <mxGeometry relative="1" as="geometry" />
        </mxCell>
        <mxCell id="VnAICG5ymwRhYKLLCskk-3" value="2" style="rounded=0;whiteSpace=wrap;html=1;fillColor=#fff2cc;strokeColor=#d6b656;" vertex="1" parent="1">
          <mxGeometry x="850" y="260" width="40" height="120" as="geometry" />
        </mxCell>
        <mxCell id="VnAICG5ymwRhYKLLCskk-81" style="edgeStyle=orthogonalEdgeStyle;rounded=0;orthogonalLoop=1;jettySize=auto;html=1;exitX=0.5;exitY=1;exitDx=0;exitDy=0;entryX=0.5;entryY=0;entryDx=0;entryDy=0;" edge="1" parent="1" source="VnAICG5ymwRhYKLLCskk-4" target="VnAICG5ymwRhYKLLCskk-17">
          <mxGeometry relative="1" as="geometry" />
        </mxCell>
        <mxCell id="VnAICG5ymwRhYKLLCskk-4" value="3" style="rounded=0;whiteSpace=wrap;html=1;fillColor=#fff2cc;strokeColor=#d6b656;" vertex="1" parent="1">
          <mxGeometry x="890" y="260" width="40" height="120" as="geometry" />
        </mxCell>
        <mxCell id="VnAICG5ymwRhYKLLCskk-82" style="edgeStyle=orthogonalEdgeStyle;rounded=0;orthogonalLoop=1;jettySize=auto;html=1;exitX=0.5;exitY=1;exitDx=0;exitDy=0;entryX=0.5;entryY=0;entryDx=0;entryDy=0;" edge="1" parent="1" source="VnAICG5ymwRhYKLLCskk-5" target="VnAICG5ymwRhYKLLCskk-18">
          <mxGeometry relative="1" as="geometry" />
        </mxCell>
        <mxCell id="VnAICG5ymwRhYKLLCskk-5" value="4" style="rounded=0;whiteSpace=wrap;html=1;fillColor=#fff2cc;strokeColor=#d6b656;" vertex="1" parent="1">
          <mxGeometry x="930" y="260" width="40" height="120" as="geometry" />
        </mxCell>
        <mxCell id="VnAICG5ymwRhYKLLCskk-83" style="edgeStyle=orthogonalEdgeStyle;rounded=0;orthogonalLoop=1;jettySize=auto;html=1;exitX=0.5;exitY=1;exitDx=0;exitDy=0;entryX=0.5;entryY=0;entryDx=0;entryDy=0;" edge="1" parent="1" source="VnAICG5ymwRhYKLLCskk-6" target="VnAICG5ymwRhYKLLCskk-19">
          <mxGeometry relative="1" as="geometry" />
        </mxCell>
        <mxCell id="VnAICG5ymwRhYKLLCskk-6" value="5" style="rounded=0;whiteSpace=wrap;html=1;fillColor=#fff2cc;strokeColor=#d6b656;" vertex="1" parent="1">
          <mxGeometry x="970" y="260" width="40" height="120" as="geometry" />
        </mxCell>
        <mxCell id="VnAICG5ymwRhYKLLCskk-84" style="edgeStyle=orthogonalEdgeStyle;rounded=0;orthogonalLoop=1;jettySize=auto;html=1;exitX=0.5;exitY=1;exitDx=0;exitDy=0;entryX=0.5;entryY=0;entryDx=0;entryDy=0;" edge="1" parent="1" source="VnAICG5ymwRhYKLLCskk-7" target="VnAICG5ymwRhYKLLCskk-20">
          <mxGeometry relative="1" as="geometry" />
        </mxCell>
        <mxCell id="VnAICG5ymwRhYKLLCskk-7" value="6" style="rounded=0;whiteSpace=wrap;html=1;fillColor=#fff2cc;strokeColor=#d6b656;" vertex="1" parent="1">
          <mxGeometry x="1010" y="260" width="40" height="120" as="geometry" />
        </mxCell>
        <mxCell id="VnAICG5ymwRhYKLLCskk-8" value="7" style="rounded=0;whiteSpace=wrap;html=1;fillColor=#fff2cc;strokeColor=#d6b656;" vertex="1" parent="1">
          <mxGeometry x="1050" y="260" width="40" height="120" as="geometry" />
        </mxCell>
        <mxCell id="VnAICG5ymwRhYKLLCskk-9" value="8" style="rounded=0;whiteSpace=wrap;html=1;fillColor=#fff2cc;strokeColor=#d6b656;" vertex="1" parent="1">
          <mxGeometry x="1090" y="260" width="40" height="120" as="geometry" />
        </mxCell>
        <mxCell id="VnAICG5ymwRhYKLLCskk-10" value="9" style="rounded=0;whiteSpace=wrap;html=1;fillColor=#fff2cc;strokeColor=#d6b656;" vertex="1" parent="1">
          <mxGeometry x="1130" y="260" width="40" height="120" as="geometry" />
        </mxCell>
        <mxCell id="VnAICG5ymwRhYKLLCskk-11" value="10" style="rounded=0;whiteSpace=wrap;html=1;fillColor=#fff2cc;strokeColor=#d6b656;" vertex="1" parent="1">
          <mxGeometry x="1170" y="260" width="40" height="120" as="geometry" />
        </mxCell>
        <mxCell id="VnAICG5ymwRhYKLLCskk-12" value="11" style="rounded=0;whiteSpace=wrap;html=1;fillColor=#fff2cc;strokeColor=#d6b656;" vertex="1" parent="1">
          <mxGeometry x="1210" y="260" width="40" height="120" as="geometry" />
        </mxCell>
        <mxCell id="VnAICG5ymwRhYKLLCskk-13" value="12" style="rounded=0;whiteSpace=wrap;html=1;fillColor=#fff2cc;strokeColor=#d6b656;" vertex="1" parent="1">
          <mxGeometry x="1250" y="260" width="40" height="120" as="geometry" />
        </mxCell>
        <mxCell id="VnAICG5ymwRhYKLLCskk-106" style="edgeStyle=orthogonalEdgeStyle;rounded=0;orthogonalLoop=1;jettySize=auto;html=1;exitX=0.5;exitY=1;exitDx=0;exitDy=0;entryX=0.5;entryY=0;entryDx=0;entryDy=0;" edge="1" parent="1" source="VnAICG5ymwRhYKLLCskk-15" target="VnAICG5ymwRhYKLLCskk-89">
          <mxGeometry relative="1" as="geometry" />
        </mxCell>
        <mxCell id="VnAICG5ymwRhYKLLCskk-15" value="q" style="rounded=0;whiteSpace=wrap;html=1;fillColor=#fff2cc;strokeColor=#d6b656;" vertex="1" parent="1">
          <mxGeometry x="690" y="630" width="40" height="120" as="geometry" />
        </mxCell>
        <mxCell id="VnAICG5ymwRhYKLLCskk-107" style="edgeStyle=orthogonalEdgeStyle;rounded=0;orthogonalLoop=1;jettySize=auto;html=1;exitX=0.5;exitY=1;exitDx=0;exitDy=0;entryX=0.5;entryY=0;entryDx=0;entryDy=0;" edge="1" parent="1" source="VnAICG5ymwRhYKLLCskk-16" target="VnAICG5ymwRhYKLLCskk-90">
          <mxGeometry relative="1" as="geometry" />
        </mxCell>
        <mxCell id="VnAICG5ymwRhYKLLCskk-16" value="q" style="rounded=0;whiteSpace=wrap;html=1;fillColor=#fff2cc;strokeColor=#d6b656;" vertex="1" parent="1">
          <mxGeometry x="730" y="630" width="40" height="120" as="geometry" />
        </mxCell>
        <mxCell id="VnAICG5ymwRhYKLLCskk-108" style="edgeStyle=orthogonalEdgeStyle;rounded=0;orthogonalLoop=1;jettySize=auto;html=1;exitX=0.5;exitY=1;exitDx=0;exitDy=0;entryX=0.5;entryY=0;entryDx=0;entryDy=0;" edge="1" parent="1" source="VnAICG5ymwRhYKLLCskk-17" target="VnAICG5ymwRhYKLLCskk-91">
          <mxGeometry relative="1" as="geometry" />
        </mxCell>
        <mxCell id="VnAICG5ymwRhYKLLCskk-17" value="k" style="rounded=0;whiteSpace=wrap;html=1;fillColor=#fff2cc;strokeColor=#d6b656;" vertex="1" parent="1">
          <mxGeometry x="770" y="630" width="40" height="120" as="geometry" />
        </mxCell>
        <mxCell id="VnAICG5ymwRhYKLLCskk-18" value="k" style="rounded=0;whiteSpace=wrap;html=1;fillColor=#fff2cc;strokeColor=#d6b656;" vertex="1" parent="1">
          <mxGeometry x="810" y="630" width="40" height="120" as="geometry" />
        </mxCell>
        <mxCell id="VnAICG5ymwRhYKLLCskk-19" value="v" style="rounded=0;whiteSpace=wrap;html=1;fillColor=#fff2cc;strokeColor=#d6b656;" vertex="1" parent="1">
          <mxGeometry x="850" y="630" width="40" height="120" as="geometry" />
        </mxCell>
        <mxCell id="VnAICG5ymwRhYKLLCskk-20" value="v" style="rounded=0;whiteSpace=wrap;html=1;fillColor=#fff2cc;strokeColor=#d6b656;" vertex="1" parent="1">
          <mxGeometry x="890" y="630" width="40" height="120" as="geometry" />
        </mxCell>
        <mxCell id="VnAICG5ymwRhYKLLCskk-21" value="q" style="rounded=0;whiteSpace=wrap;html=1;fillColor=#fff2cc;strokeColor=#d6b656;" vertex="1" parent="1">
          <mxGeometry x="1157" y="630" width="40" height="120" as="geometry" />
        </mxCell>
        <mxCell id="VnAICG5ymwRhYKLLCskk-22" value="q" style="rounded=0;whiteSpace=wrap;html=1;fillColor=#fff2cc;strokeColor=#d6b656;" vertex="1" parent="1">
          <mxGeometry x="1197" y="630" width="40" height="120" as="geometry" />
        </mxCell>
        <mxCell id="VnAICG5ymwRhYKLLCskk-23" value="k" style="rounded=0;whiteSpace=wrap;html=1;fillColor=#fff2cc;strokeColor=#d6b656;" vertex="1" parent="1">
          <mxGeometry x="1237" y="630" width="43" height="120" as="geometry" />
        </mxCell>
        <mxCell id="VnAICG5ymwRhYKLLCskk-24" value="k" style="rounded=0;whiteSpace=wrap;html=1;fillColor=#fff2cc;strokeColor=#d6b656;" vertex="1" parent="1">
          <mxGeometry x="1277" y="630" width="40" height="120" as="geometry" />
        </mxCell>
        <mxCell id="VnAICG5ymwRhYKLLCskk-25" value="v" style="rounded=0;whiteSpace=wrap;html=1;fillColor=#fff2cc;strokeColor=#d6b656;" vertex="1" parent="1">
          <mxGeometry x="1317" y="630" width="40" height="120" as="geometry" />
        </mxCell>
        <mxCell id="VnAICG5ymwRhYKLLCskk-26" value="v" style="rounded=0;whiteSpace=wrap;html=1;fillColor=#fff2cc;strokeColor=#d6b656;" vertex="1" parent="1">
          <mxGeometry x="1357" y="630" width="40" height="120" as="geometry" />
        </mxCell>
        <mxCell id="VnAICG5ymwRhYKLLCskk-27" value="" style="whiteSpace=wrap;html=1;fillColor=none;dashed=1;strokeWidth=3;strokeColor=light-dark(#ce3b3b, #ededed);" vertex="1" parent="1">
          <mxGeometry x="1610" y="560" width="880" height="240" as="geometry" />
        </mxCell>
        <mxCell id="VnAICG5ymwRhYKLLCskk-28" value="q" style="rounded=0;whiteSpace=wrap;html=1;fillColor=#fff2cc;strokeColor=#d6b656;" vertex="1" parent="1">
          <mxGeometry x="1690" y="630" width="40" height="120" as="geometry" />
        </mxCell>
        <mxCell id="VnAICG5ymwRhYKLLCskk-29" value="k" style="rounded=0;whiteSpace=wrap;html=1;fillColor=#fff2cc;strokeColor=#d6b656;" vertex="1" parent="1">
          <mxGeometry x="1730" y="630" width="40" height="120" as="geometry" />
        </mxCell>
        <mxCell id="VnAICG5ymwRhYKLLCskk-30" value="v" style="rounded=0;whiteSpace=wrap;html=1;fillColor=#fff2cc;strokeColor=#d6b656;" vertex="1" parent="1">
          <mxGeometry x="1770" y="630" width="40" height="120" as="geometry" />
        </mxCell>
        <mxCell id="VnAICG5ymwRhYKLLCskk-31" value="q" style="rounded=0;whiteSpace=wrap;html=1;fillColor=#fff2cc;strokeColor=#d6b656;" vertex="1" parent="1">
          <mxGeometry x="1880" y="630" width="40" height="120" as="geometry" />
        </mxCell>
        <mxCell id="VnAICG5ymwRhYKLLCskk-32" value="k" style="rounded=0;whiteSpace=wrap;html=1;fillColor=#fff2cc;strokeColor=#d6b656;" vertex="1" parent="1">
          <mxGeometry x="1920" y="630" width="40" height="120" as="geometry" />
        </mxCell>
        <mxCell id="VnAICG5ymwRhYKLLCskk-33" value="v" style="rounded=0;whiteSpace=wrap;html=1;fillColor=#fff2cc;strokeColor=#d6b656;" vertex="1" parent="1">
          <mxGeometry x="1960" y="630" width="40" height="120" as="geometry" />
        </mxCell>
        <mxCell id="VnAICG5ymwRhYKLLCskk-34" value="q" style="rounded=0;whiteSpace=wrap;html=1;fillColor=#fff2cc;strokeColor=#d6b656;" vertex="1" parent="1">
          <mxGeometry x="2070" y="630" width="40" height="120" as="geometry" />
        </mxCell>
        <mxCell id="VnAICG5ymwRhYKLLCskk-35" value="k" style="rounded=0;whiteSpace=wrap;html=1;fillColor=#fff2cc;strokeColor=#d6b656;" vertex="1" parent="1">
          <mxGeometry x="2110" y="630" width="40" height="120" as="geometry" />
        </mxCell>
        <mxCell id="VnAICG5ymwRhYKLLCskk-36" value="v" style="rounded=0;whiteSpace=wrap;html=1;fillColor=#fff2cc;strokeColor=#d6b656;" vertex="1" parent="1">
          <mxGeometry x="2150" y="630" width="43" height="120" as="geometry" />
        </mxCell>
        <mxCell id="VnAICG5ymwRhYKLLCskk-37" value="q" style="rounded=0;whiteSpace=wrap;html=1;fillColor=#fff2cc;strokeColor=#d6b656;" vertex="1" parent="1">
          <mxGeometry x="2277" y="630" width="40" height="120" as="geometry" />
        </mxCell>
        <mxCell id="VnAICG5ymwRhYKLLCskk-38" value="k" style="rounded=0;whiteSpace=wrap;html=1;fillColor=#fff2cc;strokeColor=#d6b656;" vertex="1" parent="1">
          <mxGeometry x="2317" y="630" width="40" height="120" as="geometry" />
        </mxCell>
        <mxCell id="VnAICG5ymwRhYKLLCskk-39" value="v" style="rounded=0;whiteSpace=wrap;html=1;fillColor=#fff2cc;strokeColor=#d6b656;" vertex="1" parent="1">
          <mxGeometry x="2357" y="630" width="40" height="120" as="geometry" />
        </mxCell>
        <mxCell id="VnAICG5ymwRhYKLLCskk-50" value="&lt;font style=&quot;font-size: 22px;&quot;&gt;&lt;b&gt;fused_qkv&lt;/b&gt;&lt;/font&gt;" style="text;html=1;align=center;verticalAlign=middle;resizable=0;points=[];autosize=1;strokeColor=none;fillColor=none;" vertex="1" parent="1">
          <mxGeometry x="610" y="190" width="130" height="40" as="geometry" />
        </mxCell>
        <mxCell id="VnAICG5ymwRhYKLLCskk-51" value="" style="endArrow=none;dashed=1;html=1;dashPattern=1 3;strokeWidth=4;rounded=0;entryX=0.5;entryY=0;entryDx=0;entryDy=0;strokeColor=#FF0000;" edge="1" parent="1" target="VnAICG5ymwRhYKLLCskk-2">
          <mxGeometry width="50" height="50" relative="1" as="geometry">
            <mxPoint x="1050" y="450" as="sourcePoint" />
            <mxPoint x="1260" y="560" as="targetPoint" />
          </mxGeometry>
        </mxCell>
        <mxCell id="VnAICG5ymwRhYKLLCskk-52" value="&lt;font style=&quot;font-size: 22px;&quot;&gt;&lt;b&gt;tp2&lt;/b&gt;&lt;/font&gt;" style="text;html=1;align=center;verticalAlign=middle;resizable=0;points=[];autosize=1;strokeColor=none;fillColor=none;" vertex="1" parent="1">
          <mxGeometry x="645" y="565" width="60" height="40" as="geometry" />
        </mxCell>
        <mxCell id="VnAICG5ymwRhYKLLCskk-53" value="&lt;font style=&quot;font-size: 22px;&quot;&gt;&lt;b&gt;rank0&lt;/b&gt;&lt;/font&gt;" style="text;html=1;align=center;verticalAlign=middle;resizable=0;points=[];autosize=1;strokeColor=none;fillColor=none;" vertex="1" parent="1">
          <mxGeometry x="770" y="760" width="80" height="40" as="geometry" />
        </mxCell>
        <mxCell id="VnAICG5ymwRhYKLLCskk-54" value="&lt;font style=&quot;font-size: 22px;&quot;&gt;&lt;b&gt;rank1&lt;/b&gt;&lt;/font&gt;" style="text;html=1;align=center;verticalAlign=middle;resizable=0;points=[];autosize=1;strokeColor=none;fillColor=none;" vertex="1" parent="1">
          <mxGeometry x="1257" y="760" width="80" height="40" as="geometry" />
        </mxCell>
        <mxCell id="VnAICG5ymwRhYKLLCskk-55" value="&lt;font style=&quot;font-size: 22px;&quot;&gt;&lt;b&gt;tp4&lt;/b&gt;&lt;/font&gt;" style="text;html=1;align=center;verticalAlign=middle;resizable=0;points=[];autosize=1;strokeColor=none;fillColor=none;" vertex="1" parent="1">
          <mxGeometry x="1655" y="570" width="60" height="40" as="geometry" />
        </mxCell>
        <mxCell id="VnAICG5ymwRhYKLLCskk-56" value="&lt;font style=&quot;font-size: 22px;&quot;&gt;&lt;b&gt;rank0&lt;/b&gt;&lt;/font&gt;" style="text;html=1;align=center;verticalAlign=middle;resizable=0;points=[];autosize=1;strokeColor=none;fillColor=none;" vertex="1" parent="1">
          <mxGeometry x="1715" y="760" width="80" height="40" as="geometry" />
        </mxCell>
        <mxCell id="VnAICG5ymwRhYKLLCskk-57" value="&lt;font style=&quot;font-size: 22px;&quot;&gt;&lt;b&gt;rank1&lt;/b&gt;&lt;/font&gt;" style="text;html=1;align=center;verticalAlign=middle;resizable=0;points=[];autosize=1;strokeColor=none;fillColor=none;" vertex="1" parent="1">
          <mxGeometry x="1900" y="760" width="80" height="40" as="geometry" />
        </mxCell>
        <mxCell id="VnAICG5ymwRhYKLLCskk-58" value="&lt;font style=&quot;font-size: 22px;&quot;&gt;&lt;b&gt;rank2&lt;/b&gt;&lt;/font&gt;" style="text;html=1;align=center;verticalAlign=middle;resizable=0;points=[];autosize=1;strokeColor=none;fillColor=none;" vertex="1" parent="1">
          <mxGeometry x="2090" y="760" width="80" height="40" as="geometry" />
        </mxCell>
        <mxCell id="VnAICG5ymwRhYKLLCskk-59" value="&lt;font style=&quot;font-size: 22px;&quot;&gt;&lt;b&gt;rank3&lt;/b&gt;&lt;/font&gt;" style="text;html=1;align=center;verticalAlign=middle;resizable=0;points=[];autosize=1;strokeColor=none;fillColor=none;" vertex="1" parent="1">
          <mxGeometry x="2307" y="760" width="80" height="40" as="geometry" />
        </mxCell>
        <mxCell id="VnAICG5ymwRhYKLLCskk-60" value="" style="whiteSpace=wrap;html=1;fillColor=none;dashed=1;strokeWidth=3;strokeColor=light-dark(#ce3b3b, #ededed);" vertex="1" parent="1">
          <mxGeometry x="1601" y="190" width="880" height="250" as="geometry" />
        </mxCell>
        <mxCell id="VnAICG5ymwRhYKLLCskk-75" style="edgeStyle=orthogonalEdgeStyle;rounded=0;orthogonalLoop=1;jettySize=auto;html=1;exitX=0.5;exitY=1;exitDx=0;exitDy=0;entryX=0.5;entryY=0;entryDx=0;entryDy=0;" edge="1" parent="1" source="VnAICG5ymwRhYKLLCskk-61" target="VnAICG5ymwRhYKLLCskk-28">
          <mxGeometry relative="1" as="geometry" />
        </mxCell>
        <mxCell id="VnAICG5ymwRhYKLLCskk-61" value="1" style="rounded=0;whiteSpace=wrap;html=1;fillColor=#fff2cc;strokeColor=#d6b656;" vertex="1" parent="1">
          <mxGeometry x="1801" y="260" width="40" height="120" as="geometry" />
        </mxCell>
        <mxCell id="VnAICG5ymwRhYKLLCskk-76" style="edgeStyle=orthogonalEdgeStyle;rounded=0;orthogonalLoop=1;jettySize=auto;html=1;exitX=0.5;exitY=1;exitDx=0;exitDy=0;entryX=0.5;entryY=0;entryDx=0;entryDy=0;" edge="1" parent="1" source="VnAICG5ymwRhYKLLCskk-62" target="VnAICG5ymwRhYKLLCskk-29">
          <mxGeometry relative="1" as="geometry" />
        </mxCell>
        <mxCell id="VnAICG5ymwRhYKLLCskk-62" value="2" style="rounded=0;whiteSpace=wrap;html=1;fillColor=#fff2cc;strokeColor=#d6b656;" vertex="1" parent="1">
          <mxGeometry x="1841" y="260" width="40" height="120" as="geometry" />
        </mxCell>
        <mxCell id="VnAICG5ymwRhYKLLCskk-77" style="edgeStyle=orthogonalEdgeStyle;rounded=0;orthogonalLoop=1;jettySize=auto;html=1;exitX=0.5;exitY=1;exitDx=0;exitDy=0;entryX=0.5;entryY=0;entryDx=0;entryDy=0;" edge="1" parent="1" source="VnAICG5ymwRhYKLLCskk-63" target="VnAICG5ymwRhYKLLCskk-30">
          <mxGeometry relative="1" as="geometry" />
        </mxCell>
        <mxCell id="VnAICG5ymwRhYKLLCskk-63" value="3" style="rounded=0;whiteSpace=wrap;html=1;fillColor=#fff2cc;strokeColor=#d6b656;" vertex="1" parent="1">
          <mxGeometry x="1881" y="260" width="40" height="120" as="geometry" />
        </mxCell>
        <mxCell id="VnAICG5ymwRhYKLLCskk-85" style="edgeStyle=orthogonalEdgeStyle;rounded=0;orthogonalLoop=1;jettySize=auto;html=1;exitX=0.5;exitY=1;exitDx=0;exitDy=0;entryX=0.75;entryY=0;entryDx=0;entryDy=0;" edge="1" parent="1" source="VnAICG5ymwRhYKLLCskk-64" target="VnAICG5ymwRhYKLLCskk-31">
          <mxGeometry relative="1" as="geometry" />
        </mxCell>
        <mxCell id="VnAICG5ymwRhYKLLCskk-64" value="4" style="rounded=0;whiteSpace=wrap;html=1;fillColor=#fff2cc;strokeColor=#d6b656;" vertex="1" parent="1">
          <mxGeometry x="1921" y="260" width="40" height="120" as="geometry" />
        </mxCell>
        <mxCell id="VnAICG5ymwRhYKLLCskk-86" style="edgeStyle=orthogonalEdgeStyle;rounded=0;orthogonalLoop=1;jettySize=auto;html=1;exitX=0.5;exitY=1;exitDx=0;exitDy=0;entryX=0.5;entryY=0;entryDx=0;entryDy=0;" edge="1" parent="1" source="VnAICG5ymwRhYKLLCskk-65" target="VnAICG5ymwRhYKLLCskk-32">
          <mxGeometry relative="1" as="geometry" />
        </mxCell>
        <mxCell id="VnAICG5ymwRhYKLLCskk-65" value="5" style="rounded=0;whiteSpace=wrap;html=1;fillColor=#fff2cc;strokeColor=#d6b656;" vertex="1" parent="1">
          <mxGeometry x="1961" y="260" width="40" height="120" as="geometry" />
        </mxCell>
        <mxCell id="VnAICG5ymwRhYKLLCskk-87" style="edgeStyle=orthogonalEdgeStyle;rounded=0;orthogonalLoop=1;jettySize=auto;html=1;exitX=0.5;exitY=1;exitDx=0;exitDy=0;entryX=0.5;entryY=0;entryDx=0;entryDy=0;" edge="1" parent="1" source="VnAICG5ymwRhYKLLCskk-66" target="VnAICG5ymwRhYKLLCskk-33">
          <mxGeometry relative="1" as="geometry" />
        </mxCell>
        <mxCell id="VnAICG5ymwRhYKLLCskk-66" value="6" style="rounded=0;whiteSpace=wrap;html=1;fillColor=#fff2cc;strokeColor=#d6b656;" vertex="1" parent="1">
          <mxGeometry x="2001" y="260" width="40" height="120" as="geometry" />
        </mxCell>
        <mxCell id="VnAICG5ymwRhYKLLCskk-67" value="7" style="rounded=0;whiteSpace=wrap;html=1;fillColor=#fff2cc;strokeColor=#d6b656;" vertex="1" parent="1">
          <mxGeometry x="2041" y="260" width="40" height="120" as="geometry" />
        </mxCell>
        <mxCell id="VnAICG5ymwRhYKLLCskk-68" value="8" style="rounded=0;whiteSpace=wrap;html=1;fillColor=#fff2cc;strokeColor=#d6b656;" vertex="1" parent="1">
          <mxGeometry x="2081" y="260" width="40" height="120" as="geometry" />
        </mxCell>
        <mxCell id="VnAICG5ymwRhYKLLCskk-69" value="9" style="rounded=0;whiteSpace=wrap;html=1;fillColor=#fff2cc;strokeColor=#d6b656;" vertex="1" parent="1">
          <mxGeometry x="2121" y="260" width="40" height="120" as="geometry" />
        </mxCell>
        <mxCell id="VnAICG5ymwRhYKLLCskk-70" value="10" style="rounded=0;whiteSpace=wrap;html=1;fillColor=#fff2cc;strokeColor=#d6b656;" vertex="1" parent="1">
          <mxGeometry x="2161" y="260" width="40" height="120" as="geometry" />
        </mxCell>
        <mxCell id="VnAICG5ymwRhYKLLCskk-71" value="11" style="rounded=0;whiteSpace=wrap;html=1;fillColor=#fff2cc;strokeColor=#d6b656;" vertex="1" parent="1">
          <mxGeometry x="2201" y="260" width="40" height="120" as="geometry" />
        </mxCell>
        <mxCell id="VnAICG5ymwRhYKLLCskk-72" value="12" style="rounded=0;whiteSpace=wrap;html=1;fillColor=#fff2cc;strokeColor=#d6b656;" vertex="1" parent="1">
          <mxGeometry x="2241" y="260" width="40" height="120" as="geometry" />
        </mxCell>
        <mxCell id="VnAICG5ymwRhYKLLCskk-73" value="&lt;font style=&quot;font-size: 22px;&quot;&gt;&lt;b&gt;fused_qkv&lt;/b&gt;&lt;/font&gt;" style="text;html=1;align=center;verticalAlign=middle;resizable=0;points=[];autosize=1;strokeColor=none;fillColor=none;" vertex="1" parent="1">
          <mxGeometry x="1601" y="190" width="130" height="40" as="geometry" />
        </mxCell>
        <mxCell id="VnAICG5ymwRhYKLLCskk-74" value="" style="endArrow=none;dashed=1;html=1;dashPattern=1 3;strokeWidth=4;rounded=0;entryX=0.5;entryY=0;entryDx=0;entryDy=0;strokeColor=#FF0000;" edge="1" parent="1" target="VnAICG5ymwRhYKLLCskk-60">
          <mxGeometry width="50" height="50" relative="1" as="geometry">
            <mxPoint x="2041" y="450" as="sourcePoint" />
            <mxPoint x="2251" y="560" as="targetPoint" />
          </mxGeometry>
        </mxCell>
        <mxCell id="VnAICG5ymwRhYKLLCskk-88" value="" style="whiteSpace=wrap;html=1;fillColor=none;dashed=1;strokeWidth=3;strokeColor=light-dark(#ce3b3b, #ededed);" vertex="1" parent="1">
          <mxGeometry x="600" y="910" width="880" height="240" as="geometry" />
        </mxCell>
        <mxCell id="VnAICG5ymwRhYKLLCskk-89" value="q" style="rounded=0;whiteSpace=wrap;html=1;fillColor=#fff2cc;strokeColor=#d6b656;" vertex="1" parent="1">
          <mxGeometry x="680" y="980" width="40" height="120" as="geometry" />
        </mxCell>
        <mxCell id="VnAICG5ymwRhYKLLCskk-90" value="k" style="rounded=0;whiteSpace=wrap;html=1;fillColor=#fff2cc;strokeColor=#d6b656;" vertex="1" parent="1">
          <mxGeometry x="720" y="980" width="40" height="120" as="geometry" />
        </mxCell>
        <mxCell id="VnAICG5ymwRhYKLLCskk-91" value="v" style="rounded=0;whiteSpace=wrap;html=1;fillColor=#fff2cc;strokeColor=#d6b656;" vertex="1" parent="1">
          <mxGeometry x="760" y="980" width="40" height="120" as="geometry" />
        </mxCell>
        <mxCell id="VnAICG5ymwRhYKLLCskk-92" value="q" style="rounded=0;whiteSpace=wrap;html=1;fillColor=#fff2cc;strokeColor=#d6b656;" vertex="1" parent="1">
          <mxGeometry x="870" y="980" width="40" height="120" as="geometry" />
        </mxCell>
        <mxCell id="VnAICG5ymwRhYKLLCskk-93" value="k" style="rounded=0;whiteSpace=wrap;html=1;fillColor=#fff2cc;strokeColor=#d6b656;" vertex="1" parent="1">
          <mxGeometry x="910" y="980" width="40" height="120" as="geometry" />
        </mxCell>
        <mxCell id="VnAICG5ymwRhYKLLCskk-94" value="v" style="rounded=0;whiteSpace=wrap;html=1;fillColor=#fff2cc;strokeColor=#d6b656;" vertex="1" parent="1">
          <mxGeometry x="950" y="980" width="40" height="120" as="geometry" />
        </mxCell>
        <mxCell id="VnAICG5ymwRhYKLLCskk-95" value="q" style="rounded=0;whiteSpace=wrap;html=1;fillColor=#fff2cc;strokeColor=#d6b656;" vertex="1" parent="1">
          <mxGeometry x="1060" y="980" width="40" height="120" as="geometry" />
        </mxCell>
        <mxCell id="VnAICG5ymwRhYKLLCskk-96" value="k" style="rounded=0;whiteSpace=wrap;html=1;fillColor=#fff2cc;strokeColor=#d6b656;" vertex="1" parent="1">
          <mxGeometry x="1100" y="980" width="40" height="120" as="geometry" />
        </mxCell>
        <mxCell id="VnAICG5ymwRhYKLLCskk-97" value="v" style="rounded=0;whiteSpace=wrap;html=1;fillColor=#fff2cc;strokeColor=#d6b656;" vertex="1" parent="1">
          <mxGeometry x="1140" y="980" width="43" height="120" as="geometry" />
        </mxCell>
        <mxCell id="VnAICG5ymwRhYKLLCskk-98" value="q" style="rounded=0;whiteSpace=wrap;html=1;fillColor=#fff2cc;strokeColor=#d6b656;" vertex="1" parent="1">
          <mxGeometry x="1267" y="980" width="40" height="120" as="geometry" />
        </mxCell>
        <mxCell id="VnAICG5ymwRhYKLLCskk-99" value="k" style="rounded=0;whiteSpace=wrap;html=1;fillColor=#fff2cc;strokeColor=#d6b656;" vertex="1" parent="1">
          <mxGeometry x="1307" y="980" width="40" height="120" as="geometry" />
        </mxCell>
        <mxCell id="VnAICG5ymwRhYKLLCskk-100" value="v" style="rounded=0;whiteSpace=wrap;html=1;fillColor=#fff2cc;strokeColor=#d6b656;" vertex="1" parent="1">
          <mxGeometry x="1347" y="980" width="40" height="120" as="geometry" />
        </mxCell>
        <mxCell id="VnAICG5ymwRhYKLLCskk-101" value="&lt;font style=&quot;font-size: 22px;&quot;&gt;&lt;b&gt;tp4&lt;/b&gt;&lt;/font&gt;" style="text;html=1;align=center;verticalAlign=middle;resizable=0;points=[];autosize=1;strokeColor=none;fillColor=none;" vertex="1" parent="1">
          <mxGeometry x="645" y="920" width="60" height="40" as="geometry" />
        </mxCell>
        <mxCell id="VnAICG5ymwRhYKLLCskk-102" value="&lt;font style=&quot;font-size: 22px;&quot;&gt;&lt;b&gt;rank0&lt;/b&gt;&lt;/font&gt;" style="text;html=1;align=center;verticalAlign=middle;resizable=0;points=[];autosize=1;strokeColor=none;fillColor=none;" vertex="1" parent="1">
          <mxGeometry x="705" y="1110" width="80" height="40" as="geometry" />
        </mxCell>
        <mxCell id="VnAICG5ymwRhYKLLCskk-103" value="&lt;font style=&quot;font-size: 22px;&quot;&gt;&lt;b&gt;rank1&lt;/b&gt;&lt;/font&gt;" style="text;html=1;align=center;verticalAlign=middle;resizable=0;points=[];autosize=1;strokeColor=none;fillColor=none;" vertex="1" parent="1">
          <mxGeometry x="890" y="1110" width="80" height="40" as="geometry" />
        </mxCell>
        <mxCell id="VnAICG5ymwRhYKLLCskk-104" value="&lt;font style=&quot;font-size: 22px;&quot;&gt;&lt;b&gt;rank2&lt;/b&gt;&lt;/font&gt;" style="text;html=1;align=center;verticalAlign=middle;resizable=0;points=[];autosize=1;strokeColor=none;fillColor=none;" vertex="1" parent="1">
          <mxGeometry x="1080" y="1110" width="80" height="40" as="geometry" />
        </mxCell>
        <mxCell id="VnAICG5ymwRhYKLLCskk-105" value="&lt;font style=&quot;font-size: 22px;&quot;&gt;&lt;b&gt;rank3&lt;/b&gt;&lt;/font&gt;" style="text;html=1;align=center;verticalAlign=middle;resizable=0;points=[];autosize=1;strokeColor=none;fillColor=none;" vertex="1" parent="1">
          <mxGeometry x="1297" y="1110" width="80" height="40" as="geometry" />
        </mxCell>
      </root>
    </mxGraphModel>
  </diagram>
</mxfile>
